# xmcd CD database file
#
# Track frame offsets:
#	150
#	10540
#	23570
#	37655
#	49020
#	61490
#	74667
#	88107
#	101204
#	114970
#
# Disc length: 1699 seconds
#
# Revision: 0
# Processed by: cddbd v1.5.2PL0 Copyright (c) Steve Scherf et al.
# Submitted via: CDex 1.77
#
DISCID=7606a10a
DTITLE=Muddy Waters - Muddy Waters Sings Big Bill Broonzy
DYEAR=1959
DGENRE=Blues
TTITLE0=Tel Me Baby
TTITLE1=Southbound Train
TTITLE2=When I Get Thinking
TTITLE3=Just A Dream (On My Mind)
TTITLE4=Double Trouble
TTITLE5=I Feel So Good
TTITLE6=I Done Got Wise
TTITLE7=Mopper's Blues
TTITLE8=Lonesome Road Blues
TTITLE9=Hey, Hey
EXTD=YEAR: 1959
EXTT0=
EXTT1=
EXTT2=
EXTT3=
EXTT4=
EXTT5=
EXTT6=
EXTT7=
EXTT8=
EXTT9=
PLAYORDER=
